<svg width="14" height="14" viewBox="0 0 14 14" fill="none" xmlns="http://www.w3.org/2000/svg">
<path d="M7 10.3334C7.18889 10.3334 7.34722 10.2695 7.475 10.1417C7.60278 10.0139 7.66667 9.8556 7.66667 9.66671C7.66667 9.47782 7.60278 9.31949 7.475 9.19171C7.34722 9.06393 7.18889 9.00004 7 9.00004C6.81111 9.00004 6.65278 9.06393 6.525 9.19171C6.39722 9.31949 6.33333 9.47782 6.33333 9.66671C6.33333 9.8556 6.39722 10.0139 6.525 10.1417C6.65278 10.2695 6.81111 10.3334 7 10.3334ZM6.33333 7.66671H7.66667V3.66671H6.33333V7.66671ZM7 13.6667C6.07778 13.6667 5.21111 13.4917 4.4 13.1417C3.58889 12.7917 2.88333 12.3167 2.28333 11.7167C1.68333 11.1167 1.20833 10.4112 0.858332 9.60004C0.508332 8.78893 0.333332 7.92226 0.333332 7.00004C0.333332 6.07782 0.508332 5.21115 0.858332 4.40004C1.20833 3.58893 1.68333 2.88337 2.28333 2.28337C2.88333 1.68337 3.58889 1.20837 4.4 0.858374C5.21111 0.508374 6.07778 0.333374 7 0.333374C7.92222 0.333374 8.78889 0.508374 9.6 0.858374C10.4111 1.20837 11.1167 1.68337 11.7167 2.28337C12.3167 2.88337 12.7917 3.58893 13.1417 4.40004C13.4917 5.21115 13.6667 6.07782 13.6667 7.00004C13.6667 7.92226 13.4917 8.78893 13.1417 9.60004C12.7917 10.4112 12.3167 11.1167 11.7167 11.7167C11.1167 12.3167 10.4111 12.7917 9.6 13.1417C8.78889 13.4917 7.92222 13.6667 7 13.6667ZM7 12.3334C8.48889 12.3334 9.75 11.8167 10.7833 10.7834C11.8167 9.75004 12.3333 8.48893 12.3333 7.00004C12.3333 5.51115 11.8167 4.25004 10.7833 3.21671C9.75 2.18337 8.48889 1.66671 7 1.66671C5.51111 1.66671 4.25 2.18337 3.21667 3.21671C2.18333 4.25004 1.66667 5.51115 1.66667 7.00004C1.66667 8.48893 2.18333 9.75004 3.21667 10.7834C4.25 11.8167 5.51111 12.3334 7 12.3334Z" fill="#E25E4C"/>
</svg>
